<svg width="969" height="265" viewBox="0 0 969 265" fill="none" xmlns="http://www.w3.org/2000/svg">
<path d="M15.75 204.75C11.3167 204.75 7.58336 203.233 4.55002 200.2C1.51669 197.167 2.468e-05 193.433 2.468e-05 189C2.468e-05 184.567 1.51669 180.833 4.55002 177.8C7.58336 174.767 11.3167 173.25 15.75 173.25H43.4C47.8334 173.25 51.5667 171.733 54.6 168.7C57.8667 165.667 59.5 161.933 59.5 157.5V94.85H53.9V151.9C53.9 156.333 52.2667 160.183 49 163.45C45.9667 166.483 42.2334 168 37.8 168H16.1C11.6667 168 7.81669 166.483 4.55002 163.45C1.51669 160.183 2.468e-05 156.333 2.468e-05 151.9V109.9C2.468e-05 106.167 1.16669 102.9 3.50002 100.1C5.83336 97.0667 8.75003 95.0833 12.25 94.15C20.65 92.2833 28.7 89.3667 36.4 85.4C44.1 81.2 49.4667 76.5333 52.5 71.4C53.9 69.0667 55.8834 67.2 58.45 65.8C61.0167 64.4 63.7 63.7 66.5 63.7H97.3C101.967 63.7 105.817 65.2167 108.85 68.25C111.883 71.2833 113.4 75.1333 113.4 79.8V158.55C113.4 161.817 112.467 164.85 110.6 167.65C108.967 170.217 106.633 172.083 103.6 173.25H124.6V204.75H15.75ZM121.387 35.35C120.454 34.1833 119.987 32.7833 119.987 31.15C119.987 29.5167 120.454 28.2333 121.387 27.3L132.587 16.1C133.52 14.9333 134.804 14.35 136.437 14.35C138.07 14.35 139.354 14.9333 140.287 16.1L151.487 27.3L151.837 27.65L152.187 27.3L163.387 16.1C164.554 14.9333 165.954 14.35 167.587 14.35C169.454 14.35 170.62 14.9333 171.087 16.1L182.287 27.3C183.454 28.2333 184.037 29.5167 184.037 31.15C184.037 32.7833 183.454 34.1833 182.287 35.35L171.087 46.55C170.154 47.4833 168.987 47.95 167.587 47.95C166.654 47.95 165.254 47.4833 163.387 46.55L152.187 35.35L151.837 35L151.487 35.35L140.287 46.55C138.887 47.4833 137.604 47.95 136.437 47.95C135.27 47.95 133.987 47.4833 132.587 46.55L121.387 35.35ZM189.856 204.75H113.556V173.6H124.756V79.1C124.756 74.6667 126.273 70.9333 129.306 67.9C132.573 64.6333 136.423 63 140.856 63H162.906C167.339 63 171.073 64.6333 174.106 67.9C177.139 70.9333 178.656 74.6667 178.656 79.1V173.6H189.856V204.75ZM255.497 204.75C253.631 204.75 252.114 204.167 250.947 203C249.781 201.833 249.197 200.433 249.197 198.8C245.931 202.767 241.731 204.75 236.597 204.75H178.497V173.6H189.697V108.85C189.697 105.117 190.864 101.85 193.197 99.05C195.531 96.25 198.447 94.3833 201.947 93.45C210.114 91.5833 218.047 88.6667 225.747 84.7C233.447 80.5 238.814 75.95 241.847 71.05C243.481 68.4833 245.464 66.5 247.797 65.1C250.364 63.7 253.164 63 256.197 63H286.997C291.664 63 295.514 64.5167 298.547 67.55C301.581 70.5833 303.097 74.4333 303.097 79.1V173.6H314.297V204.75H255.497ZM249.197 173.25V94.15H243.597V173.25H249.197ZM303.253 173.25H314.453V79.1C314.453 74.6667 315.97 70.9333 319.003 67.9C322.27 64.6333 326.12 63 330.553 63H361.353C364.386 63 367.07 63.7 369.403 65.1C371.97 66.5 374.07 68.4833 375.703 71.05C378.736 75.95 384.103 80.5 391.803 84.7C399.503 88.6667 407.436 91.5833 415.603 93.45C419.336 94.3833 422.37 96.25 424.703 99.05C427.036 101.85 428.203 105.117 428.203 108.85V188.65C428.203 193.083 426.57 196.933 423.303 200.2C420.27 203.233 416.536 204.75 412.103 204.75H381.303C376.17 204.75 371.97 202.767 368.703 198.8C368.703 200.433 368.003 201.833 366.603 203C365.436 204.167 364.036 204.75 362.403 204.75H303.253V173.25ZM373.953 173.25V94.15H368.703V173.25H373.953ZM474.414 120.4C474.414 115.967 475.931 112.233 478.964 109.2C482.231 105.933 486.081 104.3 490.514 104.3H512.564C516.997 104.3 520.731 105.933 523.764 109.2C527.031 112.233 528.664 115.967 528.664 120.4V233.1H533.914V106.4C533.914 101.967 535.431 98.2333 538.464 95.2C541.731 91.9333 545.581 90.3 550.014 90.3H572.064C576.497 90.3 580.231 91.9333 583.264 95.2C586.531 98.2333 588.164 101.967 588.164 106.4V173.6H593.414V106.4C593.414 101.967 594.931 98.2333 597.964 95.2C601.231 91.9333 605.081 90.3 609.514 90.3H631.214C635.881 90.3 639.731 91.8167 642.764 94.85C645.797 97.8833 647.314 101.733 647.314 106.4V173.6H652.914V93.1C652.914 88.6667 654.431 84.9333 657.464 81.9C660.731 78.6333 664.581 77 669.014 77H690.714C695.147 77 698.881 78.6333 701.914 81.9C705.181 84.9333 706.814 88.6667 706.814 93.1V173.6H718.014V204.75H588.164V248.15C588.164 252.583 586.531 256.317 583.264 259.35C580.231 262.617 576.497 264.25 572.064 264.25H540.914C538.114 264.25 535.431 263.55 532.864 262.15C530.531 260.983 528.664 259.233 527.264 256.9C524.231 251.767 518.747 247.1 510.814 242.9C503.114 238.7 495.181 235.667 487.014 233.8C483.281 232.867 480.247 231 477.914 228.2C475.581 225.4 474.414 222.133 474.414 218.4V120.4ZM714.747 241.35C713.813 240.183 713.347 238.783 713.347 237.15C713.347 235.517 713.813 234.233 714.747 233.3L725.947 222.1C726.88 220.933 728.163 220.35 729.797 220.35C731.43 220.35 732.713 220.933 733.647 222.1L744.847 233.3L745.197 233.65L745.547 233.3L756.747 222.1C757.913 220.933 759.313 220.35 760.947 220.35C762.813 220.35 763.98 220.933 764.447 222.1L775.647 233.3C776.813 234.233 777.397 235.517 777.397 237.15C777.397 238.783 776.813 240.183 775.647 241.35L764.447 252.55C763.513 253.483 762.347 253.95 760.947 253.95C760.013 253.95 758.613 253.483 756.747 252.55L745.547 241.35L745.197 241L744.847 241.35L733.647 252.55C732.247 253.483 730.963 253.95 729.797 253.95C728.63 253.95 727.347 253.483 725.947 252.55L714.747 241.35ZM783.215 204.75H706.915V173.6H718.115V79.1C718.115 74.6667 719.632 70.9333 722.665 67.9C725.932 64.6333 729.782 63 734.215 63H756.265C760.699 63 764.432 64.6333 767.465 67.9C770.499 70.9333 772.015 74.6667 772.015 79.1V173.6H783.215V204.75ZM771.857 173.6H783.057V16.1C783.057 11.6667 784.573 7.93332 787.607 4.89999C790.873 1.63332 794.723 -1.33514e-05 799.157 -1.33514e-05H820.857C825.29 -1.33514e-05 829.023 1.63332 832.057 4.89999C835.323 7.93332 836.957 11.6667 836.957 16.1V173.6H848.157V204.75H771.857V173.6ZM901.945 241.9C901.011 240.967 900.545 239.683 900.545 238.05C900.545 236.183 901.011 234.783 901.945 233.85L913.145 222.65C914.778 221.483 916.178 220.9 917.345 220.9C918.745 220.9 920.028 221.483 921.195 222.65L932.395 233.85C933.561 234.783 934.145 236.183 934.145 238.05C934.145 239.683 933.561 240.967 932.395 241.9L921.195 253.1C920.261 254.033 918.978 254.5 917.345 254.5C915.711 254.5 914.311 254.033 913.145 253.1L901.945 241.9ZM965.248 201.6C963.148 203.7 960.465 204.75 957.198 204.75H836.798V173.25H914.498C911.698 170.45 909.831 167.067 908.898 163.1C907.965 159.133 907.498 154.467 907.498 149.1V88.55H901.898V151.55C901.898 155.983 900.265 159.833 896.998 163.1C893.965 166.133 890.231 167.65 885.798 167.65H864.098C859.665 167.65 855.815 166.133 852.548 163.1C849.515 159.833 847.998 155.983 847.998 151.55V103.25C847.998 99.5167 849.165 96.25 851.498 93.45C853.831 90.4167 856.748 88.4333 860.248 87.5C868.648 85.6333 876.698 82.7167 884.398 78.75C892.098 74.55 897.465 69.8833 900.498 64.75C901.898 62.4167 903.881 60.55 906.448 59.15C909.015 57.75 911.698 57.05 914.498 57.05H945.648C950.081 57.05 953.815 58.6833 956.848 61.95C960.115 64.9833 961.748 68.7167 961.748 73.15V163.45C961.748 166.483 961.981 168.467 962.448 169.4C963.148 170.333 964.081 171.15 965.248 171.85C966.415 172.317 967.231 173.133 967.698 174.3C968.398 175.233 968.748 177.217 968.748 180.25V193.2C968.748 196.467 967.581 199.267 965.248 201.6Z" fill="url(#paint0_linear_461_60)"/>
<defs>
<linearGradient id="paint0_linear_461_60" x1="-5.63416" y1="135.25" x2="974.366" y2="135.25" gradientUnits="userSpaceOnUse">
<stop stop-color="#1E3A8A"/>
<stop offset="1" stop-color="#3B82F6"/>
</linearGradient>
</defs>
</svg>
