<svg width="495" height="265" viewBox="0 0 495 265" fill="none" xmlns="http://www.w3.org/2000/svg">
<path d="M2.468e-05 120.4C2.468e-05 115.967 1.51669 112.233 4.55002 109.2C7.81669 105.933 11.6667 104.3 16.1 104.3H38.15C42.5834 104.3 46.3167 105.933 49.35 109.2C52.6167 112.233 54.25 115.967 54.25 120.4V233.1H59.5V106.4C59.5 101.967 61.0167 98.2333 64.05 95.2C67.3167 91.9333 71.1667 90.3 75.6 90.3H97.65C102.083 90.3 105.817 91.9333 108.85 95.2C112.117 98.2333 113.75 101.967 113.75 106.4V173.6H119V106.4C119 101.967 120.517 98.2333 123.55 95.2C126.817 91.9333 130.667 90.3 135.1 90.3H156.8C161.467 90.3 165.317 91.8167 168.35 94.85C171.383 97.8833 172.9 101.733 172.9 106.4V173.6H178.5V93.1C178.5 88.6667 180.017 84.9333 183.05 81.9C186.317 78.6333 190.167 77 194.6 77H216.3C220.733 77 224.467 78.6333 227.5 81.9C230.767 84.9333 232.4 88.6667 232.4 93.1V173.6H243.6V204.75H113.75V248.15C113.75 252.583 112.117 256.317 108.85 259.35C105.817 262.617 102.083 264.25 97.65 264.25H66.5C63.7 264.25 61.0167 263.55 58.45 262.15C56.1167 260.983 54.25 259.233 52.85 256.9C49.8167 251.767 44.3334 247.1 36.4 242.9C28.7 238.7 20.7667 235.667 12.6 233.8C8.86669 232.867 5.83336 231 3.50002 228.2C1.16669 225.4 2.468e-05 222.133 2.468e-05 218.4V120.4ZM240.332 241.35C239.399 240.183 238.932 238.783 238.932 237.15C238.932 235.517 239.399 234.233 240.332 233.3L251.532 222.1C252.466 220.933 253.749 220.35 255.382 220.35C257.016 220.35 258.299 220.933 259.232 222.1L270.432 233.3L270.782 233.65L271.132 233.3L282.332 222.1C283.499 220.933 284.899 220.35 286.532 220.35C288.399 220.35 289.566 220.933 290.032 222.1L301.232 233.3C302.399 234.233 302.982 235.517 302.982 237.15C302.982 238.783 302.399 240.183 301.232 241.35L290.032 252.55C289.099 253.483 287.932 253.95 286.532 253.95C285.599 253.95 284.199 253.483 282.332 252.55L271.132 241.35L270.782 241L270.432 241.35L259.232 252.55C257.832 253.483 256.549 253.95 255.382 253.95C254.216 253.95 252.932 253.483 251.532 252.55L240.332 241.35ZM308.801 204.75H232.501V173.6H243.701V79.1C243.701 74.6667 245.218 70.9333 248.251 67.9C251.518 64.6333 255.368 63 259.801 63H281.851C286.285 63 290.018 64.6333 293.051 67.9C296.085 70.9333 297.601 74.6667 297.601 79.1V173.6H308.801V204.75ZM297.443 173.6H308.643V16.1C308.643 11.6667 310.159 7.93332 313.193 4.89999C316.459 1.63332 320.309 -1.33514e-05 324.743 -1.33514e-05H346.443C350.876 -1.33514e-05 354.609 1.63332 357.643 4.89999C360.909 7.93332 362.543 11.6667 362.543 16.1V173.6H373.743V204.75H297.443V173.6ZM427.53 241.9C426.597 240.967 426.131 239.683 426.131 238.05C426.131 236.183 426.597 234.783 427.53 233.85L438.73 222.65C440.364 221.483 441.764 220.9 442.93 220.9C444.33 220.9 445.614 221.483 446.78 222.65L457.98 233.85C459.147 234.783 459.73 236.183 459.73 238.05C459.73 239.683 459.147 240.967 457.98 241.9L446.78 253.1C445.847 254.033 444.564 254.5 442.93 254.5C441.297 254.5 439.897 254.033 438.73 253.1L427.53 241.9ZM490.834 201.6C488.734 203.7 486.051 204.75 482.784 204.75H362.384V173.25H440.084C437.284 170.45 435.417 167.067 434.484 163.1C433.551 159.133 433.084 154.467 433.084 149.1V88.55H427.484V151.55C427.484 155.983 425.851 159.833 422.584 163.1C419.551 166.133 415.817 167.65 411.384 167.65H389.684C385.251 167.65 381.401 166.133 378.134 163.1C375.101 159.833 373.584 155.983 373.584 151.55V103.25C373.584 99.5167 374.751 96.25 377.084 93.45C379.417 90.4167 382.334 88.4333 385.834 87.5C394.234 85.6333 402.284 82.7167 409.984 78.75C417.684 74.55 423.051 69.8833 426.084 64.75C427.484 62.4167 429.467 60.55 432.034 59.15C434.601 57.75 437.284 57.05 440.084 57.05H471.234C475.667 57.05 479.401 58.6833 482.434 61.95C485.701 64.9833 487.334 68.7167 487.334 73.15V163.45C487.334 166.483 487.567 168.467 488.034 169.4C488.734 170.333 489.667 171.15 490.834 171.85C492.001 172.317 492.817 173.133 493.284 174.3C493.984 175.233 494.334 177.217 494.334 180.25V193.2C494.334 196.467 493.167 199.267 490.834 201.6Z" fill="url(#paint0_linear_461_60)"/>
<defs>
<linearGradient id="paint0_linear_461_60" x1="-5.84119" y1="135.25" x2="500.159" y2="135.25" gradientUnits="userSpaceOnUse">
<stop stop-color="#1E3A8A"/>
<stop offset="1" stop-color="#3B82F6"/>
</linearGradient>
</defs>
</svg>
