<svg width="1089" height="313" viewBox="0 0 1089 313" fill="none" xmlns="http://www.w3.org/2000/svg">
<path d="M49.6098 300.35C48.6765 299.183 48.2098 297.783 48.2098 296.15C48.2098 294.517 48.6765 293.233 49.6098 292.3L60.8098 281.1C61.7431 279.933 63.0265 279.35 64.6598 279.35C66.2931 279.35 67.5765 279.933 68.5098 281.1L79.7098 292.3L80.0598 292.65L80.4098 292.3L91.6098 281.1C92.7765 279.933 94.1765 279.35 95.8098 279.35C97.6765 279.35 98.8431 279.933 99.3098 281.1L110.51 292.3C111.676 293.233 112.26 294.517 112.26 296.15C112.26 297.783 111.676 299.183 110.51 300.35L99.3098 311.55C98.3765 312.483 97.2098 312.95 95.8098 312.95C94.8765 312.95 93.4765 312.483 91.6098 311.55L80.4098 300.35L80.0598 300L79.7098 300.35L68.5098 311.55C67.1098 312.483 65.8265 312.95 64.6598 312.95C63.4931 312.95 62.2098 312.483 60.8098 311.55L49.6098 300.35ZM66.15 263.9C63.35 263.9 60.6667 263.2 58.1 261.8C55.7667 260.633 53.9 258.883 52.5 256.55C49.4667 251.417 44.1 246.75 36.4 242.55C28.7 238.35 20.65 235.317 12.25 233.45C8.75003 232.75 5.83336 230.883 3.50002 227.85C1.16669 225.05 2.468e-05 221.783 2.468e-05 218.05V127.05C2.468e-05 122.617 1.51669 118.883 4.55002 115.85C7.58336 112.817 11.3167 111.3 15.75 111.3H37.8C42.2334 111.3 45.9667 112.817 49 115.85C52.2667 118.883 53.9 122.617 53.9 127.05V232.75H59.15V112.7C59.15 108.967 60.3167 105.7 62.65 102.9C64.9834 99.8667 68.0167 97.8833 71.75 96.95C80.15 95.0833 88.2 92.1667 95.9 88.2C103.6 84 108.967 79.3333 112 74.2C113.4 71.8667 115.267 70 117.6 68.6C120.167 67.2 122.733 66.5 125.3 66.5H156.8C161.233 66.5 164.967 68.1333 168 71.4C171.033 74.4333 172.55 78.1667 172.55 82.6V181.65C172.55 186.083 171.033 189.933 168 193.2C164.967 196.233 161.233 197.75 156.8 197.75H134.75C130.317 197.75 126.467 196.233 123.2 193.2C120.167 189.933 118.65 186.083 118.65 181.65V98H113.4V248.15C113.4 252.583 111.767 256.317 108.5 259.35C105.467 262.383 101.733 263.9 97.3 263.9H66.15ZM244.787 173.6V94.5H239.187V173.6H244.787ZM183.887 234.85C183.887 230.417 185.403 226.567 188.437 223.3C191.703 220.267 195.553 218.75 199.987 218.75H237.437C239.77 218.517 241.52 217.583 242.687 215.95C244.087 214.55 244.787 212.917 244.787 211.05V204.75H201.387C196.953 204.75 193.103 203.233 189.837 200.2C186.803 196.933 185.287 193.083 185.287 188.65V109.2C185.287 105.467 186.453 102.2 188.787 99.4C191.12 96.3667 194.153 94.5 197.887 93.8C206.053 91.9333 213.987 88.9 221.687 84.7C229.387 80.5 234.753 75.95 237.787 71.05C239.187 68.4833 241.053 66.5 243.387 65.1C245.953 63.7 248.637 63 251.437 63H282.937C287.37 63 291.103 64.6333 294.137 67.9C297.17 70.9333 298.687 74.6667 298.687 79.1V173.25H309.887V204.75H298.687V217.35C298.687 220.383 297.987 223.183 296.587 225.75C295.187 228.317 293.32 230.067 290.987 231C285.62 232.867 280.837 236.367 276.637 241.5C272.67 246.633 269.87 252.933 268.237 260.4C267.303 264.133 265.437 267.167 262.637 269.5C259.837 271.833 256.57 273 252.837 273H199.987C195.553 273 191.703 271.367 188.437 268.1C185.403 265.067 183.887 261.333 183.887 256.9V234.85ZM321.573 34.9C320.64 33.9667 320.173 32.6833 320.173 31.05C320.173 29.1833 320.64 27.7833 321.573 26.85L332.773 15.65C334.407 14.4833 335.807 13.9 336.973 13.9C338.373 13.9 339.657 14.4833 340.823 15.65L352.023 26.85C353.19 27.7833 353.773 29.1833 353.773 31.05C353.773 32.6833 353.19 33.9667 352.023 34.9L340.823 46.1C339.89 47.0333 338.607 47.5 336.973 47.5C335.34 47.5 333.94 47.0333 332.773 46.1L321.573 34.9ZM375.11 204.75H298.81V173.6H310.01V79.1C310.01 74.6667 311.526 70.9333 314.56 67.9C317.826 64.6333 321.676 63 326.11 63H348.16C352.593 63 356.326 64.6333 359.36 67.9C362.393 70.9333 363.91 74.6667 363.91 79.1V173.6H375.11V204.75ZM363.751 173.25H374.951V102.55C374.951 98.1167 376.468 94.3833 379.501 91.35C382.768 88.0833 386.618 86.45 391.051 86.45H413.101C417.535 86.45 421.268 88.0833 424.301 91.35C427.568 94.3833 429.201 98.1167 429.201 102.55V173.25H434.451V102.55C434.451 98.1167 435.968 94.3833 439.001 91.35C442.268 88.0833 446.118 86.45 450.551 86.45H472.251C476.685 86.45 480.418 88.0833 483.451 91.35C486.718 94.3833 488.351 98.1167 488.351 102.55V173.25H493.951V89.6C493.951 84.9333 495.468 81.0833 498.501 78.05C501.768 75.0167 505.618 73.5 510.051 73.5H531.751C536.185 73.5 539.918 75.1333 542.951 78.4C546.218 81.4333 547.851 85.1667 547.851 89.6V158.9C547.851 162.633 546.685 165.9 544.351 168.7C542.018 171.5 538.985 173.367 535.251 174.3C527.085 176.167 519.151 179.2 511.451 183.4C503.751 187.6 498.385 192.15 495.351 197.05C493.951 199.383 491.968 201.25 489.401 202.65C487.068 204.05 484.501 204.75 481.701 204.75H363.751V173.25ZM594.043 120.4C594.043 115.967 595.56 112.233 598.593 109.2C601.86 105.933 605.71 104.3 610.143 104.3H632.193C636.626 104.3 640.36 105.933 643.393 109.2C646.66 112.233 648.293 115.967 648.293 120.4V233.1H653.543V106.4C653.543 101.967 655.06 98.2333 658.093 95.2C661.36 91.9333 665.21 90.3 669.643 90.3H691.693C696.126 90.3 699.86 91.9333 702.893 95.2C706.16 98.2333 707.793 101.967 707.793 106.4V173.6H713.043V106.4C713.043 101.967 714.56 98.2333 717.593 95.2C720.86 91.9333 724.71 90.3 729.143 90.3H750.843C755.51 90.3 759.36 91.8167 762.393 94.85C765.426 97.8833 766.943 101.733 766.943 106.4V173.6H772.543V93.1C772.543 88.6667 774.06 84.9333 777.093 81.9C780.36 78.6333 784.21 77 788.643 77H810.343C814.776 77 818.51 78.6333 821.543 81.9C824.81 84.9333 826.443 88.6667 826.443 93.1V173.6H837.643V204.75H707.793V248.15C707.793 252.583 706.16 256.317 702.893 259.35C699.86 262.617 696.126 264.25 691.693 264.25H660.543C657.743 264.25 655.06 263.55 652.493 262.15C650.16 260.983 648.293 259.233 646.893 256.9C643.86 251.767 638.376 247.1 630.443 242.9C622.743 238.7 614.81 235.667 606.643 233.8C602.91 232.867 599.876 231 597.543 228.2C595.21 225.4 594.043 222.133 594.043 218.4V120.4ZM834.375 241.35C833.442 240.183 832.975 238.783 832.975 237.15C832.975 235.517 833.442 234.233 834.375 233.3L845.575 222.1C846.509 220.933 847.792 220.35 849.425 220.35C851.059 220.35 852.342 220.933 853.275 222.1L864.475 233.3L864.825 233.65L865.175 233.3L876.375 222.1C877.542 220.933 878.942 220.35 880.575 220.35C882.442 220.35 883.609 220.933 884.075 222.1L895.275 233.3C896.442 234.233 897.025 235.517 897.025 237.15C897.025 238.783 896.442 240.183 895.275 241.35L884.075 252.55C883.142 253.483 881.975 253.95 880.575 253.95C879.642 253.95 878.242 253.483 876.375 252.55L865.175 241.35L864.825 241L864.475 241.35L853.275 252.55C851.875 253.483 850.592 253.95 849.425 253.95C848.259 253.95 846.975 253.483 845.575 252.55L834.375 241.35ZM902.844 204.75H826.544V173.6H837.744V79.1C837.744 74.6667 839.261 70.9333 842.294 67.9C845.561 64.6333 849.411 63 853.844 63H875.894C880.328 63 884.061 64.6333 887.094 67.9C890.127 70.9333 891.644 74.6667 891.644 79.1V173.6H902.844V204.75ZM891.486 173.6H902.686V16.1C902.686 11.6667 904.202 7.93332 907.236 4.89999C910.502 1.63332 914.352 -1.33514e-05 918.786 -1.33514e-05H940.486C944.919 -1.33514e-05 948.652 1.63332 951.686 4.89999C954.952 7.93332 956.586 11.6667 956.586 16.1V173.6H967.786V204.75H891.486V173.6ZM1021.57 241.9C1020.64 240.967 1020.17 239.683 1020.17 238.05C1020.17 236.183 1020.64 234.783 1021.57 233.85L1032.77 222.65C1034.41 221.483 1035.81 220.9 1036.97 220.9C1038.37 220.9 1039.66 221.483 1040.82 222.65L1052.02 233.85C1053.19 234.783 1053.77 236.183 1053.77 238.05C1053.77 239.683 1053.19 240.967 1052.02 241.9L1040.82 253.1C1039.89 254.033 1038.61 254.5 1036.97 254.5C1035.34 254.5 1033.94 254.033 1032.77 253.1L1021.57 241.9ZM1084.88 201.6C1082.78 203.7 1080.09 204.75 1076.83 204.75H956.427V173.25H1034.13C1031.33 170.45 1029.46 167.067 1028.53 163.1C1027.59 159.133 1027.13 154.467 1027.13 149.1V88.55H1021.53V151.55C1021.53 155.983 1019.89 159.833 1016.63 163.1C1013.59 166.133 1009.86 167.65 1005.43 167.65H983.727C979.294 167.65 975.444 166.133 972.177 163.1C969.144 159.833 967.627 155.983 967.627 151.55V103.25C967.627 99.5167 968.794 96.25 971.127 93.45C973.46 90.4167 976.377 88.4333 979.877 87.5C988.277 85.6333 996.327 82.7167 1004.03 78.75C1011.73 74.55 1017.09 69.8833 1020.13 64.75C1021.53 62.4167 1023.51 60.55 1026.08 59.15C1028.64 57.75 1031.33 57.05 1034.13 57.05H1065.28C1069.71 57.05 1073.44 58.6833 1076.48 61.95C1079.74 64.9833 1081.38 68.7167 1081.38 73.15V163.45C1081.38 166.483 1081.61 168.467 1082.08 169.4C1082.78 170.333 1083.71 171.15 1084.88 171.85C1086.04 172.317 1086.86 173.133 1087.33 174.3C1088.03 175.233 1088.38 177.217 1088.38 180.25V193.2C1088.38 196.467 1087.21 199.267 1084.88 201.6Z" fill="url(#paint0_linear_461_60)"/>
<defs>
<linearGradient id="paint0_linear_461_60" x1="-5.8197" y1="135.25" x2="1094.18" y2="135.25" gradientUnits="userSpaceOnUse">
<stop stop-color="#1E3A8A"/>
<stop offset="1" stop-color="#3B82F6"/>
</linearGradient>
</defs>
</svg>
