<svg width="1147" height="313" viewBox="0 0 1147 313" fill="none" xmlns="http://www.w3.org/2000/svg">
<path d="M49.6098 300.35C48.6765 299.183 48.2098 297.783 48.2098 296.15C48.2098 294.517 48.6765 293.233 49.6098 292.3L60.8098 281.1C61.7431 279.933 63.0265 279.35 64.6598 279.35C66.2931 279.35 67.5765 279.933 68.5098 281.1L79.7098 292.3L80.0598 292.65L80.4098 292.3L91.6098 281.1C92.7765 279.933 94.1765 279.35 95.8098 279.35C97.6765 279.35 98.8431 279.933 99.3098 281.1L110.51 292.3C111.676 293.233 112.26 294.517 112.26 296.15C112.26 297.783 111.676 299.183 110.51 300.35L99.3098 311.55C98.3765 312.483 97.2098 312.95 95.8098 312.95C94.8765 312.95 93.4765 312.483 91.6098 311.55L80.4098 300.35L80.0598 300L79.7098 300.35L68.5098 311.55C67.1098 312.483 65.8265 312.95 64.6598 312.95C63.4931 312.95 62.2098 312.483 60.8098 311.55L49.6098 300.35ZM66.15 263.9C63.35 263.9 60.6667 263.2 58.1 261.8C55.7667 260.633 53.9 258.883 52.5 256.55C49.4667 251.417 44.1 246.75 36.4 242.55C28.7 238.35 20.65 235.317 12.25 233.45C8.75003 232.75 5.83336 230.883 3.50002 227.85C1.16669 225.05 2.468e-05 221.783 2.468e-05 218.05V127.05C2.468e-05 122.617 1.51669 118.883 4.55002 115.85C7.58336 112.817 11.3167 111.3 15.75 111.3H37.8C42.2334 111.3 45.9667 112.817 49 115.85C52.2667 118.883 53.9 122.617 53.9 127.05V232.75H59.15V112.7C59.15 108.967 60.3167 105.7 62.65 102.9C64.9834 99.8667 68.0167 97.8833 71.75 96.95C80.15 95.0833 88.2 92.1667 95.9 88.2C103.6 84 108.967 79.3333 112 74.2C113.4 71.8667 115.267 70 117.6 68.6C120.167 67.2 122.733 66.5 125.3 66.5H156.8C161.233 66.5 164.967 68.1333 168 71.4C171.033 74.4333 172.55 78.1667 172.55 82.6V181.65C172.55 186.083 171.033 189.933 168 193.2C164.967 196.233 161.233 197.75 156.8 197.75H134.75C130.317 197.75 126.467 196.233 123.2 193.2C120.167 189.933 118.65 186.083 118.65 181.65V98H113.4V248.15C113.4 252.583 111.767 256.317 108.5 259.35C105.467 262.383 101.733 263.9 97.3 263.9H66.15ZM199.637 275.1C195.203 275.1 191.47 273.467 188.437 270.2C185.403 267.167 183.887 263.433 183.887 259V102.9C183.887 98.4667 185.403 94.7333 188.437 91.7C191.47 88.4333 195.203 86.8 199.637 86.8H221.687C226.12 86.8 229.853 88.4333 232.887 91.7C236.153 94.7333 237.787 98.4667 237.787 102.9V158.2C237.787 164.5 238.487 168.7 239.887 170.8C241.52 172.667 244.553 173.6 248.987 173.6V204.75H237.787V259C237.787 263.433 236.153 267.167 232.887 270.2C229.853 273.467 226.12 275.1 221.687 275.1H199.637ZM264.928 228.55C260.495 228.55 256.645 227.033 253.378 224C250.345 220.967 248.828 217.117 248.828 212.45V204.75H237.628V173.25H248.828V108.85C248.828 105.117 249.995 101.85 252.328 99.05C254.661 96.25 257.578 94.3833 261.078 93.45C269.245 91.5833 277.178 88.6667 284.878 84.7C292.578 80.5 297.945 75.95 300.978 71.05C302.611 68.4833 304.595 66.5 306.928 65.1C309.495 63.7 312.295 63 315.328 63H346.128C351.028 63 354.878 64.5167 357.678 67.55C360.711 70.35 362.228 74.2 362.228 79.1V163.8C362.228 165.667 361.761 167.767 360.828 170.1C362.928 168.933 364.561 167.067 365.728 164.5C367.128 161.933 367.828 159.017 367.828 155.75V79.1C367.828 72.5667 365.845 67.3167 361.878 63.35C357.911 59.3833 352.661 57.4 346.128 57.4H302.378C297.478 57.4 291.878 55.8833 285.578 52.85C279.278 49.5833 276.011 46.0833 275.778 42.35C275.545 37.6833 276.945 33.8333 279.978 30.8C283.245 27.5333 287.095 25.9 291.528 25.9H355.578C358.378 25.9 360.945 26.6 363.278 28C365.845 29.4 367.828 31.2667 369.228 33.6C372.261 38.7333 377.511 43.4 384.978 47.6C392.678 51.5667 400.728 54.4833 409.128 56.35C412.861 57.2833 415.895 59.2667 418.228 62.3C420.561 65.1 421.728 68.3667 421.728 72.1V158.55C421.728 161.583 420.911 164.5 419.278 167.3C417.645 169.867 415.428 171.85 412.628 173.25H432.928V204.75H302.728V212.45C302.728 216.883 301.095 220.617 297.828 223.65C294.795 226.917 291.061 228.55 286.628 228.55H264.928ZM308.328 173.6V94.15H302.728V173.6H308.328ZM488.901 58.4C487.967 57.2333 487.501 55.8333 487.501 54.2C487.501 52.5667 487.967 51.2833 488.901 50.35L500.101 39.15C501.034 37.9833 502.317 37.4 503.951 37.4C505.584 37.4 506.867 37.9833 507.801 39.15L519.001 50.35L519.351 50.7L519.701 50.35L530.901 39.15C532.067 37.9833 533.467 37.4 535.101 37.4C536.967 37.4 538.134 37.9833 538.601 39.15L549.801 50.35C550.967 51.2833 551.551 52.5667 551.551 54.2C551.551 55.8333 550.967 57.2333 549.801 58.4L538.601 69.6C537.667 70.5333 536.501 71 535.101 71C534.167 71 532.767 70.5333 530.901 69.6L519.701 58.4L519.351 58.05L519.001 58.4L507.801 69.6C506.401 70.5333 505.117 71 503.951 71C502.784 71 501.501 70.5333 500.101 69.6L488.901 58.4ZM503.951 29.35C502.784 28.1833 502.201 26.9 502.201 25.5C502.201 23.8667 502.784 22.4667 503.951 21.3L514.801 10.1C515.967 8.93332 517.251 8.34999 518.651 8.34999C520.284 8.34999 521.684 8.93332 522.851 10.1L534.051 21.3C535.217 22.4667 535.801 23.8667 535.801 25.5C535.801 26.9 535.217 28.1833 534.051 29.35L522.851 40.55C521.917 41.4833 520.517 41.95 518.651 41.95C517.017 41.95 515.734 41.4833 514.801 40.55L503.951 29.35ZM421.857 173.25H433.057V102.55C433.057 98.1167 434.573 94.3833 437.607 91.35C440.873 88.0833 444.723 86.45 449.157 86.45H471.207C475.64 86.45 479.373 88.0833 482.407 91.35C485.673 94.3833 487.307 98.1167 487.307 102.55V173.25H492.557V102.55C492.557 98.1167 494.073 94.3833 497.107 91.35C500.373 88.0833 504.223 86.45 508.657 86.45H530.357C534.79 86.45 538.523 88.0833 541.557 91.35C544.823 94.3833 546.457 98.1167 546.457 102.55V173.25H552.057V89.6C552.057 84.9333 553.573 81.0833 556.607 78.05C559.873 75.0167 563.723 73.5 568.157 73.5H589.857C594.29 73.5 598.023 75.1333 601.057 78.4C604.323 81.4333 605.957 85.1667 605.957 89.6V158.9C605.957 162.633 604.79 165.9 602.457 168.7C600.123 171.5 597.09 173.367 593.357 174.3C585.19 176.167 577.257 179.2 569.557 183.4C561.857 187.6 556.49 192.15 553.457 197.05C552.057 199.383 550.073 201.25 547.507 202.65C545.173 204.05 542.607 204.75 539.807 204.75H421.857V173.25ZM652.148 120.4C652.148 115.967 653.665 112.233 656.698 109.2C659.965 105.933 663.815 104.3 668.248 104.3H690.298C694.732 104.3 698.465 105.933 701.498 109.2C704.765 112.233 706.398 115.967 706.398 120.4V233.1H711.648V106.4C711.648 101.967 713.165 98.2333 716.198 95.2C719.465 91.9333 723.315 90.3 727.748 90.3H749.798C754.232 90.3 757.965 91.9333 760.998 95.2C764.265 98.2333 765.898 101.967 765.898 106.4V173.6H771.148V106.4C771.148 101.967 772.665 98.2333 775.698 95.2C778.965 91.9333 782.815 90.3 787.248 90.3H808.948C813.615 90.3 817.465 91.8167 820.498 94.85C823.532 97.8833 825.048 101.733 825.048 106.4V173.6H830.648V93.1C830.648 88.6667 832.165 84.9333 835.198 81.9C838.465 78.6333 842.315 77 846.748 77H868.448C872.882 77 876.615 78.6333 879.648 81.9C882.915 84.9333 884.548 88.6667 884.548 93.1V173.6H895.748V204.75H765.898V248.15C765.898 252.583 764.265 256.317 760.998 259.35C757.965 262.617 754.232 264.25 749.798 264.25H718.648C715.848 264.25 713.165 263.55 710.598 262.15C708.265 260.983 706.398 259.233 704.998 256.9C701.965 251.767 696.482 247.1 688.548 242.9C680.848 238.7 672.915 235.667 664.748 233.8C661.015 232.867 657.982 231 655.648 228.2C653.315 225.4 652.148 222.133 652.148 218.4V120.4ZM892.481 241.35C891.548 240.183 891.081 238.783 891.081 237.15C891.081 235.517 891.548 234.233 892.481 233.3L903.681 222.1C904.614 220.933 905.898 220.35 907.531 220.35C909.164 220.35 910.448 220.933 911.381 222.1L922.581 233.3L922.931 233.65L923.281 233.3L934.481 222.1C935.648 220.933 937.048 220.35 938.681 220.35C940.548 220.35 941.714 220.933 942.181 222.1L953.381 233.3C954.548 234.233 955.131 235.517 955.131 237.15C955.131 238.783 954.548 240.183 953.381 241.35L942.181 252.55C941.248 253.483 940.081 253.95 938.681 253.95C937.748 253.95 936.348 253.483 934.481 252.55L923.281 241.35L922.931 241L922.581 241.35L911.381 252.55C909.981 253.483 908.698 253.95 907.531 253.95C906.364 253.95 905.081 253.483 903.681 252.55L892.481 241.35ZM960.95 204.75H884.65V173.6H895.85V79.1C895.85 74.6667 897.366 70.9333 900.4 67.9C903.666 64.6333 907.516 63 911.95 63H934C938.433 63 942.166 64.6333 945.2 67.9C948.233 70.9333 949.75 74.6667 949.75 79.1V173.6H960.95V204.75ZM949.591 173.6H960.791V16.1C960.791 11.6667 962.308 7.93332 965.341 4.89999C968.608 1.63332 972.458 -1.33514e-05 976.891 -1.33514e-05H998.591C1003.02 -1.33514e-05 1006.76 1.63332 1009.79 4.89999C1013.06 7.93332 1014.69 11.6667 1014.69 16.1V173.6H1025.89V204.75H949.591V173.6ZM1079.68 241.9C1078.75 240.967 1078.28 239.683 1078.28 238.05C1078.28 236.183 1078.75 234.783 1079.68 233.85L1090.88 222.65C1092.51 221.483 1093.91 220.9 1095.08 220.9C1096.48 220.9 1097.76 221.483 1098.93 222.65L1110.13 233.85C1111.3 234.783 1111.88 236.183 1111.88 238.05C1111.88 239.683 1111.3 240.967 1110.13 241.9L1098.93 253.1C1098 254.033 1096.71 254.5 1095.08 254.5C1093.45 254.5 1092.05 254.033 1090.88 253.1L1079.68 241.9ZM1142.98 201.6C1140.88 203.7 1138.2 204.75 1134.93 204.75H1014.53V173.25H1092.23C1089.43 170.45 1087.57 167.067 1086.63 163.1C1085.7 159.133 1085.23 154.467 1085.23 149.1V88.55H1079.63V151.55C1079.63 155.983 1078 159.833 1074.73 163.1C1071.7 166.133 1067.97 167.65 1063.53 167.65H1041.83C1037.4 167.65 1033.55 166.133 1030.28 163.1C1027.25 159.833 1025.73 155.983 1025.73 151.55V103.25C1025.73 99.5167 1026.9 96.25 1029.23 93.45C1031.57 90.4167 1034.48 88.4333 1037.98 87.5C1046.38 85.6333 1054.43 82.7167 1062.13 78.75C1069.83 74.55 1075.2 69.8833 1078.23 64.75C1079.63 62.4167 1081.62 60.55 1084.18 59.15C1086.75 57.75 1089.43 57.05 1092.23 57.05H1123.38C1127.82 57.05 1131.55 58.6833 1134.58 61.95C1137.85 64.9833 1139.48 68.7167 1139.48 73.15V163.45C1139.48 166.483 1139.72 168.467 1140.18 169.4C1140.88 170.333 1141.82 171.15 1142.98 171.85C1144.15 172.317 1144.97 173.133 1145.43 174.3C1146.13 175.233 1146.48 177.217 1146.48 180.25V193.2C1146.48 196.467 1145.32 199.267 1142.98 201.6Z" fill="url(#paint0_linear_461_60)"/>
<defs>
<linearGradient id="paint0_linear_461_60" x1="-5.76697" y1="135.25" x2="1152.23" y2="135.25" gradientUnits="userSpaceOnUse">
<stop stop-color="#1E3A8A"/>
<stop offset="1" stop-color="#3B82F6"/>
</linearGradient>
</defs>
</svg>
